{"accessors" : [{"bufferView" : 0, "byteOffset" : 0, "componentType" : 5123, "count" : 19548, "type" : "SCALAR", "max" : [16289], "min" : [0]}, {"bufferView" : 1, "byteOffset" : 0, "componentType" : 5126, "count" : 16290, "type" : "VEC3", "max" : [77.4160385131836, 141.7646484375, -241.96986389160156], "min" : [-115.6981430053711, -4.58430814743042, -418.2827453613281], "name" : "POSITION"}, {"bufferView" : 1, "byteOffset" : 12, "componentType" : 5126, "count" : 16290, "type" : "VEC2", "max" : [0.7822099924087524, -0.030667999759316444], "min" : [0.048333000391721725, -0.7107729911804199], "name" : "TEXCOORD_0"}, {"bufferView" : 1, "byteOffset" : 20, "componentType" : 5126, "count" : 16290, "type" : "VEC3", "max" : [0.9996896386146545, 0.9999635219573975, 0.9985269904136658], "min" : [-0.9996896386146545, -0.999919593334198, -0.9987353682518005], "name" : "NORMAL"}, {"bufferView" : 0, "byteOffset" : 39096, "componentType" : 5123, "count" : 62808, "type" : "SCALAR", "max" : [52339], "min" : [0]}, {"bufferView" : 2, "byteOffset" : 0, "componentType" : 5126, "count" : 52340, "type" : "VEC3", "max" : [149.55885314941406, 398.56280517578125, -190.1339874267578], "min" : [-187.8455352783203, 2.5136380195617676, -530.08642578125], "name" : "POSITION"}, {"bufferView" : 2, "byteOffset" : 12, "componentType" : 5126, "count" : 52340, "type" : "VEC2", "max" : [0.986033022403717, -0.017388999462127686], "min" : [0.008589999750256538, -0.99686598777771], "name" : "TEXCOORD_0"}, {"bufferView" : 2, "byteOffset" : 20, "componentType" : 5126, "count" : 52340, "type" : "VEC3", "max" : [0.9997493028640747, 0.9994239807128906, 0.9997038841247559], "min" : [-0.999762773513794, -0.9999222755432129, -0.9999462366104126], "name" : "NORMAL"}, {"bufferView" : 0, "byteOffset" : 164712, "componentType" : 5123, "count" : 4560, "type" : "SCALAR", "max" : [3799], "min" : [0]}, {"bufferView" : 3, "byteOffset" : 0, "componentType" : 5126, "count" : 3800, "type" : "VEC3", "max" : [46.577823638916016, 271.1090393066406, -216.62062072753906], "min" : [-86.14666748046875, 197.7952117919922, -289.9344482421875], "name" : "POSITION"}, {"bufferView" : 3, "byteOffset" : 12, "componentType" : 5126, "count" : 3800, "type" : "VEC2", "max" : [1, -0], "min" : [0, -1], "name" : "TEXCOORD_0"}, {"bufferView" : 3, "byteOffset" : 20, "componentType" : 5126, "count" : 3800, "type" : "VEC3", "max" : [1.0000044107437134, 1.0000044107437134, 1.0000044107437134], "min" : [-1.0000044107437134, -1.0000044107437134, -1.0000044107437134], "name" : "NORMAL"}], "asset" : {"generator" : "Aspose.3D 21.11", "version" : "2.0"}, "buffers" : [{"uri" : "data:application/octet-stream;base64,", "byteLength" : 2955160}], "bufferViews" : [{"buffer" : 0, "byteOffset" : 0, "byteLength" : 173832, "target" : 34963}, {"buffer" : 0, "byteOffset" : 173836, "byteLength" : 625536, "byteStride" : 32, "target" : 34962}, {"buffer" : 0, "byteOffset" : 799376, "byteLength" : 2009856, "byteStride" : 32, "target" : 34962}, {"buffer" : 0, "byteOffset" : 2809236, "byteLength" : 145920, "byteStride" : 32, "target" : 34962}], "materials" : [{"name" : "", "pbrMetallicRoughness" : {"baseColorFactor" : [0.16, 0.16, 0.16, 1], "metallicFactor" : 0, "roughnessFactor" : 0}, "emissiveFactor" : [0, 0, 0], "alphaMode" : "OPAQUE", "doubleSided" : false}, {"name" : "", "pbrMetallicRoughness" : {"baseColorFactor" : [0.16, 0.09, 0.18, 1], "metallicFactor" : 0, "roughnessFactor" : 0}, "emissiveFactor" : [0, 0, 0], "alphaMode" : "OPAQUE", "doubleSided" : false}, {"name" : "", "pbrMetallicRoughness" : {"baseColorFactor" : [0.01, 0.01, 0.01, 1], "metallicFactor" : 0, "roughnessFactor" : 0}, "emissiveFactor" : [0, 0, 0], "alphaMode" : "OPAQUE", "doubleSided" : false}], "meshes" : [{"primitives" : [{"attributes" : {"POSITION" : 1, "TEXCOORD_0" : 2, "NORMAL" : 3}, "indices" : 0, "material" : 0, "mode" : 4}], "name" : ""}, {"primitives" : [{"attributes" : {"POSITION" : 5, "TEXCOORD_0" : 6, "NORMAL" : 7}, "indices" : 4, "material" : 1, "mode" : 4}], "name" : ""}, {"primitives" : [{"attributes" : {"POSITION" : 9, "TEXCOORD_0" : 10, "NORMAL" : 11}, "indices" : 8, "material" : 2, "mode" : 4}], "name" : ""}], "nodes" : [{"mesh" : 0, "name" : "Eduardo:Eduardo:polySurface3 pasted__Eduardo1 group"}, {"mesh" : 1, "name" : "pasted__Eduardo1 group Eduardo:polySurface7"}, {"mesh" : 2, "name" : "pasted__Eduardo1 group Eduardo:polySurface1"}], "scene" : 0, "scenes" : [{"nodes" : [0, 1, 2]}]}