{"accessors" : [{"bufferView" : 0, "byteOffset" : 0, "componentType" : 5123, "count" : 19548, "type" : "SCALAR", "max" : [16289], "min" : [0]}, {"bufferView" : 1, "byteOffset" : 0, "componentType" : 5126, "count" : 16290, "type" : "VEC3", "max" : [49.60551834106445, 79.32034301757812, 50.265289306640625], "min" : [-54.11539840698242, 0.7168639898300171, -44.43171310424805], "name" : "POSITION"}, {"bufferView" : 1, "byteOffset" : 12, "componentType" : 5126, "count" : 16290, "type" : "VEC2", "max" : [0.7822099924087524, -0.030667999759316444], "min" : [0.048333000391721725, -0.7107729911804199], "name" : "TEXCOORD_0"}, {"bufferView" : 1, "byteOffset" : 20, "componentType" : 5126, "count" : 16290, "type" : "VEC3", "max" : [0.9996896386146545, 0.9999635219573975, 0.9985269904136658], "min" : [-0.9996896386146545, -0.999919593334198, -0.9987353682518005], "name" : "NORMAL"}, {"bufferView" : 0, "byteOffset" : 39096, "componentType" : 5123, "count" : 1752, "type" : "SCALAR", "max" : [1496], "min" : [0]}, {"bufferView" : 2, "byteOffset" : 0, "componentType" : 5126, "count" : 1497, "type" : "VEC3", "max" : [8.161437034606934, 61.287784576416016, 50.82725143432617], "min" : [-10.909722328186035, 41.884395599365234, 48.24851989746094], "name" : "POSITION"}, {"bufferView" : 2, "byteOffset" : 12, "componentType" : 5126, "count" : 1497, "type" : "VEC2", "max" : [0.717136025428772, -0.09375], "min" : [0.2758220136165619, -0.9375], "name" : "TEXCOORD_0"}, {"bufferView" : 2, "byteOffset" : 20, "componentType" : 5126, "count" : 1497, "type" : "VEC3", "max" : [1.0000044107437134, 0.9980981945991516, 0.9988662600517273], "min" : [-1.0000044107437134, -0.9988662600517273, -0.9988662600517273], "name" : "NORMAL"}, {"bufferView" : 0, "byteOffset" : 42600, "componentType" : 5123, "count" : 62808, "type" : "SCALAR", "max" : [52339], "min" : [0]}, {"bufferView" : 3, "byteOffset" : 0, "componentType" : 5126, "count" : 52340, "type" : "VEC3", "max" : [88.35315704345703, 217.2456817626953, 78.10615539550781], "min" : [-92.8655014038086, 4.529144763946533, -104.48106384277344], "name" : "POSITION"}, {"bufferView" : 3, "byteOffset" : 12, "componentType" : 5126, "count" : 52340, "type" : "VEC2", "max" : [0.986033022403717, -0.017388999462127686], "min" : [0.008589999750256538, -0.99686598777771], "name" : "TEXCOORD_0"}, {"bufferView" : 3, "byteOffset" : 20, "componentType" : 5126, "count" : 52340, "type" : "VEC3", "max" : [0.9997493028640747, 0.9994239807128906, 0.9997038841247559], "min" : [-0.999762773513794, -0.9999222755432129, -0.9999462366104126], "name" : "NORMAL"}, {"bufferView" : 0, "byteOffset" : 168216, "componentType" : 5123, "count" : 4560, "type" : "SCALAR", "max" : [3799], "min" : [0]}, {"bufferView" : 4, "byteOffset" : 0, "componentType" : 5126, "count" : 3800, "type" : "VEC3", "max" : [33.042423248291016, 148.79075622558594, 63.88027572631836], "min" : [-38.243408203125, 109.4141616821289, 24.50368881225586], "name" : "POSITION"}, {"bufferView" : 4, "byteOffset" : 12, "componentType" : 5126, "count" : 3800, "type" : "VEC2", "max" : [1, -0], "min" : [0, -1], "name" : "TEXCOORD_0"}, {"bufferView" : 4, "byteOffset" : 20, "componentType" : 5126, "count" : 3800, "type" : "VEC3", "max" : [1.0000044107437134, 1.0000044107437134, 1.0000044107437134], "min" : [-1.0000044107437134, -1.0000044107437134, -1.0000044107437134], "name" : "NORMAL"}], "asset" : {"generator" : "Aspose.3D 21.11", "version" : "2.0"}, "buffers" : [{"uri" : "data:application/octet-stream;base64,", "byteLength" : 3014732}], "bufferViews" : [{"buffer" : 0, "byteOffset" : 0, "byteLength" : 177336, "target" : 34963}, {"buffer" : 0, "byteOffset" : 177340, "byteLength" : 625536, "byteStride" : 32, "target" : 34962}, {"buffer" : 0, "byteOffset" : 802880, "byteLength" : 56064, "byteStride" : 32, "target" : 34962}, {"buffer" : 0, "byteOffset" : 858948, "byteLength" : 2009856, "byteStride" : 32, "target" : 34962}, {"buffer" : 0, "byteOffset" : 2868808, "byteLength" : 145920, "byteStride" : 32, "target" : 34962}], "materials" : [{"name" : "", "pbrMetallicRoughness" : {"baseColorFactor" : [0.16, 0.16, 0.16, 1], "metallicFactor" : 0, "roughnessFactor" : 0}, "emissiveFactor" : [0, 0, 0], "alphaMode" : "OPAQUE", "doubleSided" : false}, {"name" : "", "pbrMetallicRoughness" : {"baseColorFactor" : [0.5, 0.5, 0.5, 1], "metallicFactor" : 0, "roughnessFactor" : 0}, "emissiveFactor" : [0, 0, 0], "alphaMode" : "OPAQUE", "doubleSided" : false}, {"name" : "", "pbrMetallicRoughness" : {"baseColorFactor" : [0.16, 0.09, 0.18, 1], "metallicFactor" : 0, "roughnessFactor" : 0}, "emissiveFactor" : [0, 0, 0], "alphaMode" : "OPAQUE", "doubleSided" : false}, {"name" : "", "pbrMetallicRoughness" : {"baseColorFactor" : [0.01, 0.01, 0.01, 1], "metallicFactor" : 0, "roughnessFactor" : 0}, "emissiveFactor" : [0, 0, 0], "alphaMode" : "OPAQUE", "doubleSided" : false}], "meshes" : [{"primitives" : [{"attributes" : {"POSITION" : 1, "TEXCOORD_0" : 2, "NORMAL" : 3}, "indices" : 0, "material" : 0, "mode" : 4}], "name" : ""}, {"primitives" : [{"attributes" : {"POSITION" : 5, "TEXCOORD_0" : 6, "NORMAL" : 7}, "indices" : 4, "material" : 1, "mode" : 4}], "name" : ""}, {"primitives" : [{"attributes" : {"POSITION" : 9, "TEXCOORD_0" : 10, "NORMAL" : 11}, "indices" : 8, "material" : 2, "mode" : 4}], "name" : ""}, {"primitives" : [{"attributes" : {"POSITION" : 13, "TEXCOORD_0" : 14, "NORMAL" : 15}, "indices" : 12, "material" : 3, "mode" : 4}], "name" : ""}], "nodes" : [{"mesh" : 0, "name" : "Eduardo:Eduardo:polySurface3 pasted__Eduardo1 group"}, {"mesh" : 1, "name" : "pasted__Eduardo1 group Eduardo:Calavera"}, {"mesh" : 2, "name" : "pasted__Eduardo1 group Eduardo:polySurface7"}, {"mesh" : 3, "name" : "pasted__Eduardo1 group Eduardo:polySurface1"}], "scene" : 0, "scenes" : [{"nodes" : [0, 1, 2, 3]}]}