{"accessors" : [{"bufferView" : 0, "byteOffset" : 0, "componentType" : 5123, "count" : 19548, "type" : "SCALAR", "max" : [16289], "min" : [0]}, {"bufferView" : 1, "byteOffset" : 0, "componentType" : 5126, "count" : 16290, "type" : "VEC3", "max" : [105.1375503540039, 160.50283813476562, 262.032958984375], "min" : [-76.81891632080078, 22.609621047973633, 95.90705108642578], "name" : "POSITION"}, {"bufferView" : 1, "byteOffset" : 12, "componentType" : 5126, "count" : 16290, "type" : "VEC2", "max" : [0.7822099924087524, -0.030667999759316444], "min" : [0.048333000391721725, -0.7107729911804199], "name" : "TEXCOORD_0"}, {"bufferView" : 1, "byteOffset" : 20, "componentType" : 5126, "count" : 16290, "type" : "VEC3", "max" : [0.9996896386146545, 0.9999635219573975, 0.9985269904136658], "min" : [-0.9996896386146545, -0.999919593334198, -0.9987353682518005], "name" : "NORMAL"}, {"bufferView" : 0, "byteOffset" : 39096, "componentType" : 5123, "count" : 1752, "type" : "SCALAR", "max" : [1496], "min" : [0]}, {"bufferView" : 2, "byteOffset" : 0, "componentType" : 5126, "count" : 1497, "type" : "VEC3", "max" : [32.432655334472656, 128.86851501464844, 263.018798828125], "min" : [-1.0236690044403076, 94.8293685913086, 258.4949645996094], "name" : "POSITION"}, {"bufferView" : 2, "byteOffset" : 12, "componentType" : 5126, "count" : 1497, "type" : "VEC2", "max" : [0.717136025428772, -0.09375], "min" : [0.2758220136165619, -0.9375], "name" : "TEXCOORD_0"}, {"bufferView" : 2, "byteOffset" : 20, "componentType" : 5126, "count" : 1497, "type" : "VEC3", "max" : [1.0000044107437134, 0.9980981945991516, 0.9988662600517273], "min" : [-1.0000044107437134, -0.9988662600517273, -0.9988662600517273], "name" : "NORMAL"}, {"bufferView" : 0, "byteOffset" : 42600, "componentType" : 5123, "count" : 62808, "type" : "SCALAR", "max" : [52339], "min" : [0]}, {"bufferView" : 3, "byteOffset" : 0, "componentType" : 5126, "count" : 52340, "type" : "VEC3", "max" : [173.1121063232422, 402.4637451171875, 310.8738708496094], "min" : [-144.79779052734375, 29.297462463378906, -9.43686294555664], "name" : "POSITION"}, {"bufferView" : 3, "byteOffset" : 12, "componentType" : 5126, "count" : 52340, "type" : "VEC2", "max" : [0.986033022403717, -0.017388999462127686], "min" : [0.008589999750256538, -0.99686598777771], "name" : "TEXCOORD_0"}, {"bufferView" : 3, "byteOffset" : 20, "componentType" : 5126, "count" : 52340, "type" : "VEC3", "max" : [0.9997493028640747, 0.9994239807128906, 0.9997038841247559], "min" : [-0.999762773513794, -0.9999222755432129, -0.9999462366104126], "name" : "NORMAL"}, {"bufferView" : 0, "byteOffset" : 168216, "componentType" : 5123, "count" : 4560, "type" : "SCALAR", "max" : [3799], "min" : [0]}, {"bufferView" : 4, "byteOffset" : 0, "componentType" : 5126, "count" : 3800, "type" : "VEC3", "max" : [76.08110046386719, 282.3739929199219, 285.9175720214844], "min" : [-48.974853515625, 213.29608154296875, 216.83966064453125], "name" : "POSITION"}, {"bufferView" : 4, "byteOffset" : 12, "componentType" : 5126, "count" : 3800, "type" : "VEC2", "max" : [1, -0], "min" : [0, -1], "name" : "TEXCOORD_0"}, {"bufferView" : 4, "byteOffset" : 20, "componentType" : 5126, "count" : 3800, "type" : "VEC3", "max" : [1.0000044107437134, 1.0000044107437134, 1.0000044107437134], "min" : [-1.0000044107437134, -1.0000044107437134, -1.0000044107437134], "name" : "NORMAL"}], "asset" : {"generator" : "Aspose.3D 21.11", "version" : "2.0"}, "buffers" : [{"uri" : "data:application/octet-stream;base64,", "byteLength" : 3014732}], "bufferViews" : [{"buffer" : 0, "byteOffset" : 0, "byteLength" : 177336, "target" : 34963}, {"buffer" : 0, "byteOffset" : 177340, "byteLength" : 625536, "byteStride" : 32, "target" : 34962}, {"buffer" : 0, "byteOffset" : 802880, "byteLength" : 56064, "byteStride" : 32, "target" : 34962}, {"buffer" : 0, "byteOffset" : 858948, "byteLength" : 2009856, "byteStride" : 32, "target" : 34962}, {"buffer" : 0, "byteOffset" : 2868808, "byteLength" : 145920, "byteStride" : 32, "target" : 34962}], "materials" : [{"name" : "", "pbrMetallicRoughness" : {"baseColorFactor" : [0.16, 0.16, 0.16, 1], "metallicFactor" : 0, "roughnessFactor" : 0}, "emissiveFactor" : [0, 0, 0], "alphaMode" : "OPAQUE", "doubleSided" : false}, {"name" : "", "pbrMetallicRoughness" : {"baseColorFactor" : [0.5, 0.5, 0.5, 1], "metallicFactor" : 0, "roughnessFactor" : 0}, "emissiveFactor" : [0, 0, 0], "alphaMode" : "OPAQUE", "doubleSided" : false}, {"name" : "", "pbrMetallicRoughness" : {"baseColorFactor" : [0.16, 0.09, 0.18, 1], "metallicFactor" : 0, "roughnessFactor" : 0}, "emissiveFactor" : [0, 0, 0], "alphaMode" : "OPAQUE", "doubleSided" : false}, {"name" : "", "pbrMetallicRoughness" : {"baseColorFactor" : [0.01, 0.01, 0.01, 1], "metallicFactor" : 0, "roughnessFactor" : 0}, "emissiveFactor" : [0, 0, 0], "alphaMode" : "OPAQUE", "doubleSided" : false}], "meshes" : [{"primitives" : [{"attributes" : {"POSITION" : 1, "TEXCOORD_0" : 2, "NORMAL" : 3}, "indices" : 0, "material" : 0, "mode" : 4}], "name" : ""}, {"primitives" : [{"attributes" : {"POSITION" : 5, "TEXCOORD_0" : 6, "NORMAL" : 7}, "indices" : 4, "material" : 1, "mode" : 4}], "name" : ""}, {"primitives" : [{"attributes" : {"POSITION" : 9, "TEXCOORD_0" : 10, "NORMAL" : 11}, "indices" : 8, "material" : 2, "mode" : 4}], "name" : ""}, {"primitives" : [{"attributes" : {"POSITION" : 13, "TEXCOORD_0" : 14, "NORMAL" : 15}, "indices" : 12, "material" : 3, "mode" : 4}], "name" : ""}], "nodes" : [{"mesh" : 0, "name" : "Eduardo:Eduardo:polySurface3 pasted__Eduardo1 group"}, {"mesh" : 1, "name" : "pasted__Eduardo1 group Eduardo:Calavera"}, {"mesh" : 2, "name" : "pasted__Eduardo1 group Eduardo:polySurface7"}, {"mesh" : 3, "name" : "pasted__Eduardo1 group Eduardo:polySurface1"}], "scene" : 0, "scenes" : [{"nodes" : [0, 1, 2, 3]}]}