{"accessors" : [{"bufferView" : 0, "byteOffset" : 0, "componentType" : 5123, "count" : 984, "type" : "SCALAR", "max" : [817], "min" : [0]}, {"bufferView" : 1, "byteOffset" : 0, "componentType" : 5126, "count" : 818, "type" : "VEC3", "max" : [-529.64599609375, 287.4649963378906, -324.9138488769531], "min" : [-733.2686767578125, -25.192548751831055, -528.5365600585938], "name" : "POSITION"}, {"bufferView" : 1, "byteOffset" : 12, "componentType" : 5126, "count" : 818, "type" : "VEC2", "max" : [0.9249150156974792, -0.04097500070929527], "min" : [0.08379200100898743, -0.9382179975509644], "name" : "TEXCOORD_0"}, {"bufferView" : 1, "byteOffset" : 20, "componentType" : 5126, "count" : 818, "type" : "VEC3", "max" : [0.9987310767173767, 0.792790412902832, 0.9987310767173767], "min" : [-0.9987310767173767, -1.0000044107437134, -0.9987310767173767], "name" : "NORMAL"}], "asset" : {"generator" : "Aspose.3D 21.11", "version" : "2.0"}, "buffers" : [{"uri" : "data:application/octet-stream;base64,", "byteLength" : 33464}], "bufferViews" : [{"buffer" : 0, "byteOffset" : 0, "byteLength" : 1968, "target" : 34963}, {"buffer" : 0, "byteOffset" : 1972, "byteLength" : 31488, "byteStride" : 32, "target" : 34962}], "materials" : [{"name" : "", "pbrMetallicRoughness" : {"baseColorFactor" : [1, 0, 1, 1], "metallicFactor" : 0, "roughnessFactor" : 0}, "emissiveFactor" : [0, 0, 0], "alphaMode" : "OPAQUE", "doubleSided" : false}], "meshes" : [{"primitives" : [{"attributes" : {"POSITION" : 1, "TEXCOORD_0" : 2, "NORMAL" : 3}, "indices" : 0, "material" : 0, "mode" : 4}], "name" : ""}], "nodes" : [{"mesh" : 0, "name" : "pasted__revolvedSurface1 group4"}], "scene" : 0, "scenes" : [{"nodes" : [0]}]}